<?xml version="1.0" standalone="no"?>
<!DOCTYPE svg PUBLIC "-//W3C//DTD SVG 20010904//EN"
 "http://www.w3.org/TR/2001/REC-SVG-20010904/DTD/svg10.dtd">
<svg version="1.0" xmlns="http://www.w3.org/2000/svg"
 width="512.000000pt" height="512.000000pt" viewBox="0 0 512.000000 512.000000"
 preserveAspectRatio="xMidYMid meet">

<g transform="translate(0.000000,512.000000) scale(0.100000,-0.100000)"
fill="#000000" stroke="none">
<path d="M1241 3899 c-112 -15 -288 -63 -387 -106 -414 -179 -695 -499 -799
-913 -26 -101 -26 -114 -23 -320 4 -199 6 -222 32 -305 155 -511 573 -873
1114 -966 141 -24 357 -25 491 -4 556 90 993 466 1137 977 25 89 25 98 22 347
l-3 256 -37 107 c-164 472 -545 800 -1057 909 -113 23 -376 33 -490 18z m260
-296 c167 -172 295 -357 433 -624 139 -269 239 -520 301 -758 43 -162 26 -143
-39 46 -161 460 -379 889 -567 1116 -47 56 -48 57 -42 24 5 -30 -12 -117 -23
-117 -2 0 -21 11 -42 24 -119 78 -224 45 -335 -107 -87 -118 -217 -355 -217
-397 0 -11 -78 -174 -173 -362 -95 -189 -195 -394 -222 -456 -27 -63 -51 -109
-53 -103 -5 16 79 203 231 511 77 157 142 288 143 291 10 18 -79 -12 -91 -31
-3 -5 -11 -8 -16 -5 -5 4 -9 1 -9 -5 0 -6 -5 -8 -10 -5 -16 10 -119 -238 -188
-449 -40 -122 -53 -126 -27 -8 82 369 364 957 603 1257 80 100 223 245 242
245 9 0 55 -39 101 -87z m6 -349 c40 -23 83 -74 83 -98 0 -5 -11 1 -24 13 -14
13 -29 20 -35 17 -5 -4 -25 3 -43 14 -40 24 -116 27 -158 5 -62 -32 -93 -111
-70 -181 8 -24 9 -39 2 -46 -13 -13 -39 26 -48 71 -5 23 -9 29 -15 19 -13 -20
-11 32 2 73 44 130 187 183 306 113z m-83 -80 c22 -21 20 -31 -9 -59 -18 -18
-35 -25 -65 -25 -38 0 -40 2 -40 29 0 54 78 92 114 55z m-4 -689 c6 -160 15
-315 20 -345 19 -111 38 -184 49 -188 6 -2 30 -38 53 -80 23 -41 61 -96 85
-121 24 -24 42 -46 40 -47 -2 -2 -32 -11 -68 -21 -91 -25 -298 -25 -396 1 -40
10 -73 20 -73 21 0 2 22 26 48 53 27 27 65 81 85 120 21 39 41 72 47 74 12 4
37 102 49 196 6 42 13 154 16 247 9 288 17 397 26 388 5 -5 13 -139 19 -298z
m578 3 c150 -293 232 -464 272 -568 36 -93 4 -41 -46 75 -26 61 -114 242 -195
403 -82 161 -157 312 -168 337 -47 106 -3 26 137 -247z m-672 -5 c-9 -190 -31
-402 -51 -489 -28 -120 -96 -222 -171 -256 -19 -9 -33 -7 -64 7 -22 10 -40 21
-40 24 0 3 20 17 45 30 160 85 229 284 271 774 10 124 16 68 10 -90z m163 25
c7 -73 17 -167 22 -208 34 -265 125 -449 250 -505 21 -10 39 -21 39 -25 0 -15
-78 -42 -100 -35 -33 11 -109 84 -131 126 -34 67 -59 182 -74 334 -16 174 -30
445 -23 445 3 0 11 -60 17 -132z m-249 98 c0 -2 -47 -27 -103 -56 -57 -28
-145 -82 -195 -120 -97 -72 -125 -81 -44 -13 91 76 207 147 291 178 39 15 51
17 51 11z m382 -16 c92 -34 328 -195 328 -222 0 -5 -19 6 -42 25 -69 56 -212
145 -290 182 -81 37 -78 46 4 15z"/>
</g>
</svg>
